<mxfile host="app.diagrams.net" modified="2024-03-25T16:40:27.039Z" agent="Mozilla/5.0 (Windows NT 10.0; Win64; x64) AppleWebKit/537.36 (KHTML, like Gecko) Chrome/122.0.0.0 Safari/537.36" etag="r7OWmNFJ0aOdx25mZfoE" version="21.1.2" type="device">
  <diagram name="Page-1" id="GHCCZwFHGZ2dIF8Eq7Bc">
    <mxGraphModel dx="1480" dy="778" grid="1" gridSize="10" guides="1" tooltips="1" connect="1" arrows="1" fold="1" page="1" pageScale="1" pageWidth="850" pageHeight="1100" math="0" shadow="0">
      <root>
        <mxCell id="0" />
        <mxCell id="1" parent="0" />
        <mxCell id="qtLm0A7_fBKDtyC4aUwC-1" value="User" style="swimlane;whiteSpace=wrap;html=1;" parent="1" vertex="1">
          <mxGeometry x="120" y="80" width="200" height="760" as="geometry" />
        </mxCell>
        <mxCell id="qtLm0A7_fBKDtyC4aUwC-4" value="" style="ellipse;whiteSpace=wrap;html=1;aspect=fixed;" parent="qtLm0A7_fBKDtyC4aUwC-1" vertex="1">
          <mxGeometry x="10" y="67.5" width="25" height="25" as="geometry" />
        </mxCell>
        <mxCell id="qtLm0A7_fBKDtyC4aUwC-6" value="Login" style="rounded=1;whiteSpace=wrap;html=1;" parent="qtLm0A7_fBKDtyC4aUwC-1" vertex="1">
          <mxGeometry x="60" y="60" width="110" height="40" as="geometry" />
        </mxCell>
        <mxCell id="qtLm0A7_fBKDtyC4aUwC-8" value="" style="endArrow=classic;html=1;rounded=0;exitX=1;exitY=0.5;exitDx=0;exitDy=0;entryX=0;entryY=0.5;entryDx=0;entryDy=0;" parent="qtLm0A7_fBKDtyC4aUwC-1" source="qtLm0A7_fBKDtyC4aUwC-4" target="qtLm0A7_fBKDtyC4aUwC-6" edge="1">
          <mxGeometry width="50" height="50" relative="1" as="geometry">
            <mxPoint x="280" y="260" as="sourcePoint" />
            <mxPoint x="330" y="210" as="targetPoint" />
          </mxGeometry>
        </mxCell>
        <mxCell id="qtLm0A7_fBKDtyC4aUwC-14" style="edgeStyle=orthogonalEdgeStyle;rounded=0;orthogonalLoop=1;jettySize=auto;html=1;exitX=0.5;exitY=0;exitDx=0;exitDy=0;entryX=0.5;entryY=1;entryDx=0;entryDy=0;" parent="qtLm0A7_fBKDtyC4aUwC-1" source="qtLm0A7_fBKDtyC4aUwC-10" target="qtLm0A7_fBKDtyC4aUwC-6" edge="1">
          <mxGeometry relative="1" as="geometry" />
        </mxCell>
        <mxCell id="qtLm0A7_fBKDtyC4aUwC-10" value="" style="rhombus;whiteSpace=wrap;html=1;" parent="qtLm0A7_fBKDtyC4aUwC-1" vertex="1">
          <mxGeometry x="102.5" y="130" width="25" height="30" as="geometry" />
        </mxCell>
        <mxCell id="qtLm0A7_fBKDtyC4aUwC-16" value="Wrong credentials" style="text;html=1;strokeColor=none;fillColor=none;align=center;verticalAlign=middle;whiteSpace=wrap;rounded=0;" parent="qtLm0A7_fBKDtyC4aUwC-1" vertex="1">
          <mxGeometry x="50" y="100" width="60" height="30" as="geometry" />
        </mxCell>
        <mxCell id="qtLm0A7_fBKDtyC4aUwC-19" value="Right credentials" style="text;html=1;strokeColor=none;fillColor=none;align=center;verticalAlign=middle;whiteSpace=wrap;rounded=0;" parent="qtLm0A7_fBKDtyC4aUwC-1" vertex="1">
          <mxGeometry x="67.5" y="170" width="60" height="30" as="geometry" />
        </mxCell>
        <mxCell id="DOATOJcdpVP5VAB-xwLo-68" style="edgeStyle=orthogonalEdgeStyle;rounded=0;orthogonalLoop=1;jettySize=auto;html=1;exitX=0.25;exitY=1;exitDx=0;exitDy=0;entryX=0.5;entryY=0;entryDx=0;entryDy=0;" edge="1" parent="qtLm0A7_fBKDtyC4aUwC-1" source="DOATOJcdpVP5VAB-xwLo-62" target="DOATOJcdpVP5VAB-xwLo-64">
          <mxGeometry relative="1" as="geometry" />
        </mxCell>
        <mxCell id="DOATOJcdpVP5VAB-xwLo-69" style="edgeStyle=orthogonalEdgeStyle;rounded=0;orthogonalLoop=1;jettySize=auto;html=1;exitX=0.5;exitY=1;exitDx=0;exitDy=0;entryX=0.5;entryY=0;entryDx=0;entryDy=0;" edge="1" parent="qtLm0A7_fBKDtyC4aUwC-1" source="DOATOJcdpVP5VAB-xwLo-62" target="DOATOJcdpVP5VAB-xwLo-66">
          <mxGeometry relative="1" as="geometry" />
        </mxCell>
        <mxCell id="DOATOJcdpVP5VAB-xwLo-70" style="edgeStyle=orthogonalEdgeStyle;rounded=0;orthogonalLoop=1;jettySize=auto;html=1;exitX=0.75;exitY=1;exitDx=0;exitDy=0;entryX=0.5;entryY=0;entryDx=0;entryDy=0;" edge="1" parent="qtLm0A7_fBKDtyC4aUwC-1" source="DOATOJcdpVP5VAB-xwLo-62" target="DOATOJcdpVP5VAB-xwLo-65">
          <mxGeometry relative="1" as="geometry" />
        </mxCell>
        <mxCell id="DOATOJcdpVP5VAB-xwLo-62" value="" style="rounded=0;whiteSpace=wrap;html=1;" vertex="1" parent="qtLm0A7_fBKDtyC4aUwC-1">
          <mxGeometry x="27.5" y="420" width="140" height="20" as="geometry" />
        </mxCell>
        <mxCell id="DOATOJcdpVP5VAB-xwLo-64" value="View" style="rounded=1;whiteSpace=wrap;html=1;" vertex="1" parent="qtLm0A7_fBKDtyC4aUwC-1">
          <mxGeometry x="20" y="480" width="40" height="30" as="geometry" />
        </mxCell>
        <mxCell id="DOATOJcdpVP5VAB-xwLo-65" value="Modify" style="rounded=1;whiteSpace=wrap;html=1;" vertex="1" parent="qtLm0A7_fBKDtyC4aUwC-1">
          <mxGeometry x="120" y="480" width="70" height="30" as="geometry" />
        </mxCell>
        <mxCell id="DOATOJcdpVP5VAB-xwLo-66" value="Cancel" style="rounded=1;whiteSpace=wrap;html=1;" vertex="1" parent="qtLm0A7_fBKDtyC4aUwC-1">
          <mxGeometry x="66.25" y="630" width="62.5" height="30" as="geometry" />
        </mxCell>
        <mxCell id="qtLm0A7_fBKDtyC4aUwC-2" value="Car Rental Website" style="swimlane;whiteSpace=wrap;html=1;" parent="1" vertex="1">
          <mxGeometry x="320" y="80" width="260" height="760" as="geometry" />
        </mxCell>
        <mxCell id="qtLm0A7_fBKDtyC4aUwC-7" value="Check login credentials" style="rounded=1;whiteSpace=wrap;html=1;" parent="qtLm0A7_fBKDtyC4aUwC-2" vertex="1">
          <mxGeometry x="40" y="55" width="120" height="50" as="geometry" />
        </mxCell>
        <mxCell id="qtLm0A7_fBKDtyC4aUwC-15" value="Enter credential" style="text;html=1;strokeColor=none;fillColor=none;align=center;verticalAlign=middle;whiteSpace=wrap;rounded=0;" parent="qtLm0A7_fBKDtyC4aUwC-2" vertex="1">
          <mxGeometry x="-30" y="50" width="60" height="30" as="geometry" />
        </mxCell>
        <mxCell id="DOATOJcdpVP5VAB-xwLo-16" style="edgeStyle=orthogonalEdgeStyle;rounded=0;orthogonalLoop=1;jettySize=auto;html=1;exitX=0.5;exitY=1;exitDx=0;exitDy=0;entryX=0.5;entryY=0;entryDx=0;entryDy=0;" edge="1" parent="qtLm0A7_fBKDtyC4aUwC-2" source="qtLm0A7_fBKDtyC4aUwC-44">
          <mxGeometry relative="1" as="geometry">
            <mxPoint x="140" y="290" as="targetPoint" />
          </mxGeometry>
        </mxCell>
        <mxCell id="qtLm0A7_fBKDtyC4aUwC-44" value="Sidebar" style="rounded=1;whiteSpace=wrap;html=1;" parent="qtLm0A7_fBKDtyC4aUwC-2" vertex="1">
          <mxGeometry x="105" y="210" width="70" height="30" as="geometry" />
        </mxCell>
        <mxCell id="DOATOJcdpVP5VAB-xwLo-61" style="edgeStyle=orthogonalEdgeStyle;rounded=0;orthogonalLoop=1;jettySize=auto;html=1;exitX=0.5;exitY=1;exitDx=0;exitDy=0;entryX=0.5;entryY=0;entryDx=0;entryDy=0;" edge="1" parent="qtLm0A7_fBKDtyC4aUwC-2" source="DOATOJcdpVP5VAB-xwLo-59" target="DOATOJcdpVP5VAB-xwLo-60">
          <mxGeometry relative="1" as="geometry" />
        </mxCell>
        <mxCell id="DOATOJcdpVP5VAB-xwLo-59" value="Profile" style="rounded=1;whiteSpace=wrap;html=1;" vertex="1" parent="qtLm0A7_fBKDtyC4aUwC-2">
          <mxGeometry x="105" y="290" width="70" height="30" as="geometry" />
        </mxCell>
        <mxCell id="DOATOJcdpVP5VAB-xwLo-60" value="My reservations" style="rounded=1;whiteSpace=wrap;html=1;" vertex="1" parent="qtLm0A7_fBKDtyC4aUwC-2">
          <mxGeometry x="82.5" y="350" width="115" height="30" as="geometry" />
        </mxCell>
        <mxCell id="DOATOJcdpVP5VAB-xwLo-77" style="edgeStyle=orthogonalEdgeStyle;rounded=0;orthogonalLoop=1;jettySize=auto;html=1;exitX=0.5;exitY=1;exitDx=0;exitDy=0;entryX=0.5;entryY=0;entryDx=0;entryDy=0;" edge="1" parent="qtLm0A7_fBKDtyC4aUwC-2" source="DOATOJcdpVP5VAB-xwLo-72" target="DOATOJcdpVP5VAB-xwLo-76">
          <mxGeometry relative="1" as="geometry" />
        </mxCell>
        <mxCell id="DOATOJcdpVP5VAB-xwLo-72" value="Form" style="rounded=1;whiteSpace=wrap;html=1;" vertex="1" parent="qtLm0A7_fBKDtyC4aUwC-2">
          <mxGeometry x="112.5" y="480" width="55" height="30" as="geometry" />
        </mxCell>
        <mxCell id="DOATOJcdpVP5VAB-xwLo-75" value="Modify reservation information" style="text;html=1;strokeColor=none;fillColor=none;align=center;verticalAlign=middle;whiteSpace=wrap;rounded=0;" vertex="1" parent="qtLm0A7_fBKDtyC4aUwC-2">
          <mxGeometry y="460" width="120" height="30" as="geometry" />
        </mxCell>
        <mxCell id="DOATOJcdpVP5VAB-xwLo-78" style="edgeStyle=orthogonalEdgeStyle;rounded=0;orthogonalLoop=1;jettySize=auto;html=1;exitX=0;exitY=0.5;exitDx=0;exitDy=0;entryX=0;entryY=0.5;entryDx=0;entryDy=0;" edge="1" parent="qtLm0A7_fBKDtyC4aUwC-2" source="DOATOJcdpVP5VAB-xwLo-76" target="DOATOJcdpVP5VAB-xwLo-72">
          <mxGeometry relative="1" as="geometry" />
        </mxCell>
        <mxCell id="DOATOJcdpVP5VAB-xwLo-76" value="" style="rhombus;whiteSpace=wrap;html=1;" vertex="1" parent="qtLm0A7_fBKDtyC4aUwC-2">
          <mxGeometry x="127.5" y="540" width="25" height="30" as="geometry" />
        </mxCell>
        <mxCell id="DOATOJcdpVP5VAB-xwLo-79" value="Invalid information" style="text;html=1;strokeColor=none;fillColor=none;align=center;verticalAlign=middle;whiteSpace=wrap;rounded=0;" vertex="1" parent="qtLm0A7_fBKDtyC4aUwC-2">
          <mxGeometry x="30" y="540" width="60" height="30" as="geometry" />
        </mxCell>
        <mxCell id="DOATOJcdpVP5VAB-xwLo-82" value="Valid information" style="text;html=1;strokeColor=none;fillColor=none;align=center;verticalAlign=middle;whiteSpace=wrap;rounded=0;" vertex="1" parent="qtLm0A7_fBKDtyC4aUwC-2">
          <mxGeometry x="190" y="520" width="60" height="30" as="geometry" />
        </mxCell>
        <mxCell id="qtLm0A7_fBKDtyC4aUwC-3" value="Database" style="swimlane;whiteSpace=wrap;html=1;" parent="1" vertex="1">
          <mxGeometry x="580" y="80" width="200" height="760" as="geometry" />
        </mxCell>
        <mxCell id="DOATOJcdpVP5VAB-xwLo-80" value="Update reservation" style="rounded=1;whiteSpace=wrap;html=1;" vertex="1" parent="qtLm0A7_fBKDtyC4aUwC-3">
          <mxGeometry x="40" y="540" width="120" height="30" as="geometry" />
        </mxCell>
        <mxCell id="DOATOJcdpVP5VAB-xwLo-83" value="Delete reservation" style="rounded=1;whiteSpace=wrap;html=1;" vertex="1" parent="qtLm0A7_fBKDtyC4aUwC-3">
          <mxGeometry x="40" y="630" width="120" height="30" as="geometry" />
        </mxCell>
        <mxCell id="qtLm0A7_fBKDtyC4aUwC-9" value="" style="endArrow=classic;html=1;rounded=0;exitX=1;exitY=0.5;exitDx=0;exitDy=0;entryX=0;entryY=0.5;entryDx=0;entryDy=0;" parent="1" source="qtLm0A7_fBKDtyC4aUwC-6" target="qtLm0A7_fBKDtyC4aUwC-7" edge="1">
          <mxGeometry width="50" height="50" relative="1" as="geometry">
            <mxPoint x="165" y="170" as="sourcePoint" />
            <mxPoint x="190" y="170" as="targetPoint" />
          </mxGeometry>
        </mxCell>
        <mxCell id="qtLm0A7_fBKDtyC4aUwC-13" style="edgeStyle=orthogonalEdgeStyle;rounded=0;orthogonalLoop=1;jettySize=auto;html=1;exitX=0.5;exitY=1;exitDx=0;exitDy=0;entryX=1;entryY=0.5;entryDx=0;entryDy=0;" parent="1" source="qtLm0A7_fBKDtyC4aUwC-7" target="qtLm0A7_fBKDtyC4aUwC-10" edge="1">
          <mxGeometry relative="1" as="geometry" />
        </mxCell>
        <mxCell id="qtLm0A7_fBKDtyC4aUwC-46" style="edgeStyle=orthogonalEdgeStyle;rounded=0;orthogonalLoop=1;jettySize=auto;html=1;exitX=0.5;exitY=1;exitDx=0;exitDy=0;entryX=0.5;entryY=0;entryDx=0;entryDy=0;" parent="1" source="qtLm0A7_fBKDtyC4aUwC-10" target="qtLm0A7_fBKDtyC4aUwC-44" edge="1">
          <mxGeometry relative="1" as="geometry" />
        </mxCell>
        <mxCell id="DOATOJcdpVP5VAB-xwLo-63" style="edgeStyle=orthogonalEdgeStyle;rounded=0;orthogonalLoop=1;jettySize=auto;html=1;exitX=0.5;exitY=1;exitDx=0;exitDy=0;entryX=0.5;entryY=0;entryDx=0;entryDy=0;" edge="1" parent="1" source="DOATOJcdpVP5VAB-xwLo-60" target="DOATOJcdpVP5VAB-xwLo-62">
          <mxGeometry relative="1" as="geometry" />
        </mxCell>
        <mxCell id="DOATOJcdpVP5VAB-xwLo-74" style="edgeStyle=orthogonalEdgeStyle;rounded=0;orthogonalLoop=1;jettySize=auto;html=1;exitX=1;exitY=0.5;exitDx=0;exitDy=0;entryX=0;entryY=0.5;entryDx=0;entryDy=0;" edge="1" parent="1" source="DOATOJcdpVP5VAB-xwLo-65" target="DOATOJcdpVP5VAB-xwLo-72">
          <mxGeometry relative="1" as="geometry" />
        </mxCell>
        <mxCell id="DOATOJcdpVP5VAB-xwLo-81" style="edgeStyle=orthogonalEdgeStyle;rounded=0;orthogonalLoop=1;jettySize=auto;html=1;exitX=1;exitY=0.5;exitDx=0;exitDy=0;entryX=0;entryY=0.5;entryDx=0;entryDy=0;" edge="1" parent="1" source="DOATOJcdpVP5VAB-xwLo-76" target="DOATOJcdpVP5VAB-xwLo-80">
          <mxGeometry relative="1" as="geometry" />
        </mxCell>
        <mxCell id="DOATOJcdpVP5VAB-xwLo-84" style="edgeStyle=orthogonalEdgeStyle;rounded=0;orthogonalLoop=1;jettySize=auto;html=1;exitX=1;exitY=0.5;exitDx=0;exitDy=0;entryX=0;entryY=0.5;entryDx=0;entryDy=0;" edge="1" parent="1" source="DOATOJcdpVP5VAB-xwLo-66" target="DOATOJcdpVP5VAB-xwLo-83">
          <mxGeometry relative="1" as="geometry" />
        </mxCell>
      </root>
    </mxGraphModel>
  </diagram>
</mxfile>
